<svg class="cta-nonagon" width="74" height="71" viewBox="0 0 74 71" fill="none"

xmlns="http://www.w3.org/2000/svg"> <path d="M24.7428 39.3701C24.2764 39.3701 3.41207 53.6508 6.53937 59.2547C9.66667 64.8585 29.8549 45.3391 29.8549 45.3391C29.8549 45.3391 20.5453 67.852 24.9995 70.184C29.4536 72.5159 36.8109 43.2422 37.2086 44.2834C37.6063 45.3246 41.8074 71.471 49.3816 67.7617C56.9558 64.0523 41.124 42.7577 41.124 42.7577C41.124 42.7577 68.3587 57.1722 70.9581 50.2777C73.1888 44.3702 46.341 38.3759 46.341 38.3759C46.341 38.3759 76.7102 30.6571 72.8309 23.0756C68.9516 15.4942 45.4372 31.3006 45.4372 31.3006C45.4372 31.3006 62.5126 10.1109 56.1712 7.37042C49.8299 4.62997 38.4559 28.3974 38.4559 28.3974C38.4559 28.3974 43.3981 0.490358 36.9483 0.00589775C30.4985 -0.478563 32.5809 29.0446 32.5809 29.0446C32.5809 29.0446 15.867 4.5215 9.64496 9.36249C3.4229 14.2035 26.4492 30.9788 25.6719 30.9788C24.8946 30.9788 0.306431 28.7192 0.00273987 34.0447C-0.300952 39.3701 24.7428 39.3701 24.7428 39.3701Z" fill="#FF5C1B"></path>

</svg>
