<svg class="cta-star" width="76" height="79" viewBox="0 0 76 79" fill="none" xmlns="http://www.w3.org/2000/svg">
  <path d="M26.7739 26.1186C27.648 25.0295 28.1509 21.4459 28.4681 20.1792C29.76 14.9504 29.1798 9.36627 30.0152 4.03704C30.0949 3.05934 30.3994 2.11314 30.9049 1.27201C33.125 -1.90236 36.3199 1.67363 38.0372 3.24923C40.4043 5.42726 46.2139 16.1939 48.8672 17.7618C51.5206 19.3296 57.1986 17.6845 60.7029 16.7731C62.8147 16.217 71.6722 13.3902 73.9001 13.7764C77.8685 14.4715 75.13 18.6577 74.1553 20.7971C71.6644 26.2653 64.0525 39.8201 63.9287 41.4575C63.7895 43.288 71.1848 53.0042 73.6757 56.5029C74.7974 58.0476 76.3368 60.272 75.9346 62.3342C75.0991 66.6516 64.9498 64.5585 62.0103 63.3923C57.3069 61.5155 46.6007 53.8923 45.6028 53.7919C43.9164 53.622 32.6763 79.8588 28.646 78.9783C24.6157 78.0978 24.3991 59.3684 24.5151 53.7225C24.6234 48.7562 23.8962 46.8485 16.7097 45.5587C12.4164 44.7863 -0.092315 40.5461 0.000513913 37.2713C0.0933428 33.9966 9.28343 31.8649 13.6619 30.3202C15.8975 29.5478 24.8477 27.4316 26.5187 26.3812C26.6165 26.307 26.7025 26.2184 26.7739 26.1186Z" fill="#FFC91D"></path>
</svg>