<svg width="43" height="43" viewBox="0 0 43 43" fill="none" xmlns="http://www.w3.org/2000/svg">
  <path d="M21.5883 40.4734V25.7624H16.6426V20.0292H21.5883V15.8002C21.5883 10.8939 24.5887 8.22417 28.9674 8.22417C30.4431 8.21851 31.9181 8.29479 33.3854 8.45258V13.5636H30.3534C27.9909 13.5636 27.5105 14.6976 27.5105 16.3514V20.0135H33.1885L32.4482 25.7466H27.5105V40.4577L21.5883 40.4734Z" fill="black"></path>
  <path d="M38.6854 2.48315H4.89265C4.33635 2.48524 3.80353 2.70772 3.4109 3.10182C3.01827 3.49593 2.79785 4.02953 2.79785 4.58584V38.3786C2.79785 38.9342 3.01852 39.467 3.41138 39.8599C3.80423 40.2527 4.33707 40.4734 4.89265 40.4734H38.6854C38.9612 40.4734 39.2342 40.419 39.4889 40.3132C39.7435 40.2074 39.9748 40.0525 40.1694 39.8571C40.3641 39.6617 40.5182 39.4299 40.623 39.1748C40.7279 38.9197 40.7813 38.6465 40.7802 38.3707V4.58584C40.7802 4.02953 40.5598 3.49593 40.1671 3.10182C39.7745 2.70772 39.2417 2.48524 38.6854 2.48315V2.48315Z" stroke="black" stroke-width="4" stroke-miterlimit="10"></path>
</svg>