<svg width="110" height="98" viewBox="0 0 110 98" fill="none" xmlns="http://www.w3.org/2000/svg">
  <path d="M104.612 63.5163C104.002 68.0903 101.605 72.2359 97.9462 75.0437C94.2878 77.8514 89.6669 79.092 85.0971 78.4934L54.3668 74.4312L72.5012 97.5453L33.4885 92.3883L49.3149 73.7634L15.7054 69.3207C11.1321 68.7161 6.98649 66.3173 4.18062 62.6519C1.37476 58.9866 0.138427 54.3549 0.743726 49.7758C1.34902 45.1968 3.74637 41.0454 7.40826 38.235C11.0701 35.4246 15.6966 34.1854 20.27 34.7899C15.6993 34.1857 11.5562 31.7883 8.75197 28.1251C5.94776 24.4619 4.71215 19.8329 5.3171 15.2566C5.92204 10.6802 8.31798 6.53129 11.9777 3.72253C15.6374 0.91378 20.2612 -0.324737 24.8319 0.279457L94.21 9.45044C98.7807 10.0546 102.924 12.452 105.728 16.1153C108.532 19.7785 109.768 24.4074 109.163 28.9838C108.558 33.5602 106.162 37.7091 102.502 40.5178C98.8427 43.3266 94.2188 44.5651 89.6481 43.9609C91.9144 44.2587 94.0996 45.001 96.0787 46.1454C98.0578 47.2898 99.792 48.8138 101.182 50.6302C102.572 52.4466 103.59 54.5197 104.179 56.7309C104.767 58.942 104.914 61.2478 104.612 63.5163Z" fill="#FFC91D"></path>
</svg>