<svg width="135" height="100" viewBox="0 0 135 100" fill="currentColor" xmlns="http://www.w3.org/2000/svg">
  <style type="text/css">
  	.st0{fill:#48A3FF;}
  </style>
  <path d="M125.462 19.6745C125.984 23.388 125.213 27.1679 123.28 30.3812C121.347 33.5945 118.369 36.0461 114.844 37.3257C111.319 38.6052 107.462 38.635 103.918 37.4099C100.374 36.1849 97.3577 33.7794 95.3754 30.5963L97.1443 51.3073C97.7143 58.0116 96.5137 64.7479 93.6629 70.8426C90.812 76.9372 86.4108 82.1763 80.8995 86.036C75.3882 89.8956 68.96 92.2404 62.258 92.8358C55.556 93.4312 48.8152 92.2563 42.7098 89.4286L42.3333 89.2536C33.992 85.389 27.3125 78.6618 23.5075 70.293L1.08297 20.9241L93.1871 4.89512L94.1192 15.8187C95.4764 12.4889 97.8928 9.69898 100.995 7.88046C104.097 6.06194 107.712 5.31612 111.28 5.75837C114.849 6.20063 118.172 7.80633 120.736 10.3271C123.301 12.8479 124.963 16.1432 125.466 19.7036L125.462 19.6745Z" fill="currentColor"></path>
</svg>