<svg version="1.1" id="Layer_1" xmlns="http://www.w3.org/2000/svg" xmlns:xlink="http://www.w3.org/1999/xlink" x="0px" y="0px" viewBox="0 0 155 149" style="enable-background:new 0 0 155 149;" xml:space="preserve">
<style type="text/css">
	.st0{fill:#48A3FF;}
</style>
<path class="st0" d="M147.9,44.5c-0.7-2.3-2.8-6.6-8.8-8.7c-4.2-1.5-10.3-1.1-22.5,0.3c-1.2,0.1-2.2,0.3-2.7,0.3l-1.1,0.1
	c-2.3,0.2-7.4,0.7-10,0.3c-1.3-2.3-3.5-7.3-4.8-10.4c-2.7-6.3-4.5-10.2-6.5-12.8c-0.2-0.2-0.4-0.5-0.6-0.7c-2.3-3.1-6.7-9-13.9-9.4
	c-4-0.3-8,1.3-11,4.4l-0.5,0.5c-1.9,2.2-3.3,4.8-4.1,7.6c-1.3,3.9-2.1,7.7-2.9,11.3c-0.9,4.3-1.8,8.4-3.3,11.9
	c-0.2,0.6-0.6,1.4-0.9,2.3c-0.2,0.5-0.4,1.1-0.7,1.8c-2.7,0.4-6.5,0.7-8.9,1c-3.5,0.3-5.8,0.6-7.4,0.8c-1.2,0.2-2.7,0.4-4.3,0.6
	C22.4,47.2,8.9,49,6.7,60.1C5,68.9,12.9,75.3,20.1,80c5.3,3.4,12.1,6.9,16.5,8.5c1.8,0.7,3,1.2,3.7,1.5c-0.1,0.4-0.2,1-0.3,1.7
	c-0.4,2.1-2.4,12.8-3.1,23.4c-0.8,12.1-0.4,23.8,8.9,27.5c1.5,0.6,3,0.9,4.5,0.9c8.8,0,17-10.6,29.4-26.6c1-1.2,2.1-2.7,3.1-4
	c6.8,6.2,12.3,11.1,16.7,13.7c0.2,0.1,16.1,9.3,27.4,5.4c4.2-1.4,7.3-4.4,8.8-8.4c2.7-7.2-0.7-14.2-2.3-17.4c-0.5-1.1-1.2-2.4-2-4
	c-1.7-3.4-5.6-11.2-7.3-15.6c2.1-3,5.8-7.8,8.4-11.2c4.1-5.4,7.9-10.4,10.2-13.8c0.2-0.3,0.5-0.6,0.7-1
	C145.7,57.4,150.1,51.5,147.9,44.5z"></path>
</svg>