<svg class="tbd-1-woman" width="314" height="364" viewBox="0 0 314 364" fill="none" xmlns="http://www.w3.org/2000/svg">
  <path d="M213.818 262.675C212.166 276.767 206.359 315.193 203.872 325.426C203.872 325.426 193.101 333.998 187.006 345.604C186.172 354.454 192.536 363.026 202.49 363.026C212.444 363.026 235.108 349.481 239.291 309.117C243.079 272.261 245.099 234.195 245.099 234.195L213.18 243.942C214.724 249.543 214.571 256.266 213.818 262.675Z" fill="#FF5C1B"></path>
  <path d="M122.596 219.815L122.317 242.21" stroke="black" stroke-width="1.30096" stroke-miterlimit="10" stroke-linecap="round"></path>
  <path d="M203.872 325.426C206.359 315.193 212.166 276.767 213.818 262.675C215.613 247.811 214.096 231.152 196.126 231.152C182.303 231.152 170.994 240.559 170.994 240.559L176.253 209.87" stroke="black" stroke-width="1.30096" stroke-miterlimit="10" stroke-linecap="round"></path>
  <path d="M203.846 287.242C218.396 278.777 218.459 262.109 199.878 276.13" stroke="black" stroke-width="1.30096" stroke-miterlimit="10" stroke-linecap="round"></path>
  <path d="M208.504 255.934C208.504 255.934 185.938 263.554 188.281 260.619C190.624 257.684 208.504 255.934 208.504 255.934Z" stroke="black" stroke-width="1.30096" stroke-linecap="round" stroke-linejoin="round"></path>
  <path d="M178.539 293.543C175.662 301.596 177.644 309.665 182.966 311.567C188.288 313.468 194.934 308.481 197.811 300.429C200.688 292.376 198.706 284.306 193.384 282.405C188.063 280.504 181.416 285.49 178.539 293.543Z" fill="black" stroke="black" stroke-width="1.30096" stroke-linecap="round" stroke-linejoin="round"></path>
  <path d="M207.059 291.365C204.445 298.68 206.247 306.011 211.084 307.739C215.92 309.467 221.959 304.938 224.573 297.622C227.186 290.307 225.384 282.976 220.548 281.248C215.711 279.521 209.672 284.05 207.059 291.365Z" fill="black" stroke="black" stroke-width="1.30096" stroke-linecap="round" stroke-linejoin="round"></path>
  <path d="M205.533 297.78L198.343 298.049" stroke="#231F20" stroke-width="1.30096" stroke-linecap="round" stroke-linejoin="round"></path>
  <path d="M176.505 302.474L133.932 298.606" stroke="#231F20" stroke-width="1.30096" stroke-linecap="round" stroke-linejoin="round"></path>
  <path d="M187.007 345.585C184.242 322.643 143.321 300.248 133.923 298.596L167.134 234.454L83.0299 248.574C83.0299 314.098 85.7944 360.772 129.202 360.772C167.655 360.844 187.007 345.585 187.007 345.585Z" fill="#FF5C1B"></path>
  <path d="M84.7625 59.6491L25.5215 64.5858L45.0261 200.257C47.2431 222.427 55.2317 236.618 83.039 231.583L122.533 224.258L159.424 178.23L175.437 214.439L186.738 212.338C199.879 211.154 205.524 202.923 211.96 189.531C215.649 182.431 248.977 112.903 248.977 112.903L256.57 93.0754L229.032 59.2542L247.235 -5.91992L79.5744 -5.91994L79.5294 -5.74939C84.8252 12.732 84.188 38.4031 84.7625 59.6491Z" fill="#FFC91D"></path>
  <mask id="mask0" style="mask-type:alpha" maskUnits="userSpaceOnUse" x="25" y="-6" width="232" height="239">
  <path d="M84.7625 59.6491L25.5215 64.5858L45.0261 200.257C47.2431 222.427 55.2317 236.618 83.039 231.583L122.533 224.258L159.424 178.23L175.437 214.439L186.738 212.338C199.879 211.154 205.524 202.923 211.96 189.531C215.649 182.431 248.977 112.903 248.977 112.903L256.57 93.0754L229.032 59.2542L247.235 -5.91992L79.5744 -5.91994L79.5294 -5.74939C84.8252 12.732 84.188 38.4031 84.7625 59.6491Z" fill="#46DE90"></path>
  </mask>
  <g mask="url(#mask0)">
  <path d="M203.442 111.97C190.97 111.97 180.859 122.081 180.859 134.553C180.859 147.026 190.97 157.137 203.442 157.137C215.914 157.137 226.025 147.026 226.025 134.553C226.025 122.081 215.914 111.97 203.442 111.97Z" fill="#46DE90"></path>
  <path d="M120.046 111.97C107.574 111.97 97.463 122.081 97.463 134.553C97.463 147.026 107.574 157.137 120.046 157.137C132.519 157.137 142.63 147.026 142.63 134.553C142.63 122.081 132.519 111.97 120.046 111.97Z" fill="#46DE90"></path>
  <path d="M36.6608 111.97C24.1884 111.97 14.0775 122.081 14.0775 134.553C14.0775 147.026 24.1884 157.137 36.6608 157.137C49.1333 157.137 59.2441 147.026 59.2441 134.553C59.2441 122.081 49.1333 111.97 36.6608 111.97Z" fill="#46DE90"></path>
  <path d="M245.144 177.763C232.672 177.763 222.561 187.874 222.561 200.347C222.561 212.819 232.672 222.93 245.144 222.93C257.617 222.93 267.728 212.819 267.728 200.347C267.728 187.874 257.617 177.763 245.144 177.763Z" fill="#E19BE9"></path>
  <path d="M161.749 177.763C149.276 177.763 139.165 187.874 139.165 200.347C139.165 212.819 149.276 222.93 161.748 222.93C174.221 222.93 184.332 212.819 184.332 200.347C184.332 187.874 174.221 177.763 161.749 177.763Z" fill="#46DE90"></path>
  <path d="M78.3532 177.763C65.8807 177.763 55.7699 187.874 55.7699 200.347C55.7699 212.819 65.8807 222.93 78.3532 222.93C90.8257 222.93 100.937 212.819 100.937 200.347C100.937 187.874 90.8257 177.763 78.3532 177.763Z" fill="#46DE90"></path>
  <path d="M203.442 -19.6258C190.97 -19.6258 180.859 -9.51487 180.859 2.95759C180.859 15.4301 190.97 25.541 203.442 25.541C215.914 25.541 226.025 15.4301 226.025 2.95759C226.025 -9.51487 215.914 -19.6258 203.442 -19.6258Z" fill="#46DE90"></path>
  <path d="M120.046 -19.6258C107.574 -19.6258 97.463 -9.51487 97.463 2.95759C97.463 15.4301 107.574 25.541 120.046 25.541C132.519 25.541 142.63 15.4301 142.63 2.95759C142.63 -9.51487 132.519 -19.6258 120.046 -19.6258Z" fill="#46DE90"></path>
  <path d="M36.6608 -19.6258C24.1884 -19.6258 14.0775 -9.51487 14.0775 2.95759C14.0775 15.4301 24.1884 25.541 36.6608 25.541C49.1333 25.541 59.2441 15.4301 59.2441 2.95759C59.2441 -9.51487 49.1333 -19.6258 36.6608 -19.6258Z" fill="#E19BE9"></path>
  <path d="M245.144 46.1677C232.672 46.1677 222.561 56.2786 222.561 68.7511C222.561 81.2236 232.672 91.3345 245.144 91.3345C257.617 91.3345 267.728 81.2236 267.728 68.7511C267.728 56.2786 257.617 46.1677 245.144 46.1677Z" fill="#46DE90"></path>
  <path d="M161.749 46.1669C149.276 46.1669 139.165 56.2779 139.165 68.7504C139.165 81.2228 149.276 91.3337 161.748 91.3337C174.221 91.3337 184.332 81.2228 184.332 68.7504C184.332 56.2779 174.221 46.1669 161.749 46.1669Z" fill="#46DE90"></path>
  <path d="M78.3532 46.1669C65.8807 46.1669 55.7699 56.2779 55.7699 68.7504C55.7699 81.2228 65.8807 91.3337 78.3532 91.3337C90.8257 91.3337 100.937 81.2228 100.937 68.7504C100.937 56.2779 90.8257 46.1669 78.3532 46.1669Z" fill="#46DE90"></path>
  </g>
  <path d="M268.274 61.9469C250.655 110.3 214.033 200.661 214.329 212.742C214.563 222.571 245.879 224.133 247.235 214.313C248.132 207.698 228.61 207.814 228.61 207.814C228.61 207.814 254.766 198.309 250.332 184.666" stroke="black" stroke-width="1.30096" stroke-linecap="round" stroke-linejoin="round"></path>
  <path d="M184.718 -2.37448L168.346 164.784L122.542 224.249" stroke="black" stroke-width="1.30096" stroke-linecap="round" stroke-linejoin="round"></path>
  <path d="M175.445 214.43L159.423 178.221" stroke="black" stroke-width="1.30096" stroke-linecap="round" stroke-linejoin="round"></path>
  <path d="M156.776 119.563C155.314 119.563 154.128 122.143 154.128 125.326C154.128 128.508 155.314 131.088 156.776 131.088C158.238 131.088 159.424 128.508 159.424 125.326C159.424 122.143 158.238 119.563 156.776 119.563Z" fill="black"></path>
  <path d="M159.11 86.9716C157.821 86.9716 156.776 89.7003 156.776 93.0663C156.776 96.4322 157.821 99.1609 159.11 99.1609C160.398 99.1609 161.443 96.4322 161.443 93.0663C161.443 89.7003 160.398 86.9716 159.11 86.9716Z" fill="black"></path>
  <path d="M163.759 56.1571C162.475 56.1571 161.435 58.7371 161.435 61.9197C161.435 65.1022 162.475 67.6821 163.759 67.6821C165.043 67.6821 166.084 65.1022 166.084 61.9197C166.084 58.7371 165.043 56.1571 163.759 56.1571Z" fill="black"></path>
  <path d="M100.03 225.973C101.358 225.075 121.752 204.691 120.423 204.691L97.3911 204.691L143.061 151.042" stroke="black" stroke-width="1.30096" stroke-linecap="round" stroke-linejoin="round"></path>
  <path d="M193.092 211.036L184.718 193.156L195.803 188.507L176.505 158.132" stroke="black" stroke-width="1.30096" stroke-linecap="round" stroke-linejoin="round"></path>
  <path d="M90.7129 81.8464C88.0201 81.8464 28.7791 86.9717 28.7791 86.9717" stroke="black" stroke-width="1.30096" stroke-linecap="round" stroke-linejoin="round"></path>
  <path d="M195.364 179.864L247.235 -5.91996" stroke="black" stroke-width="1.30096" stroke-linecap="round" stroke-linejoin="round"></path>
  <path d="M34.8466 -17.0412C25.9784 -0.642182 35.8788 63.6792 35.8788 63.6792L84.7617 59.6042C83.8641 26.7972 85.8388 -16.6013 64.5569 -27.6866C43.2751 -38.7718 18.4477 -19.2582 11.3477 -9.95018C4.24776 -0.642163 -2.39442 13.1089 2.9283 16.2056C8.25101 19.3023 22.8907 -0.148501 22.8907 -0.148501C22.8907 -0.148501 12.2452 16.6993 16.6793 22.022C21.1134 27.3447 31.1665 9.35696 31.1665 9.35696C31.1665 9.35696 20.1261 24.7955 25.5475 29.5528C28.7699 32.3802 31.9564 28.3052 31.9564 28.3052" stroke="black" stroke-width="1.30096" stroke-linecap="round" stroke-linejoin="round"></path>
  <path d="M94.707 149.713L89.3934 59.2626L25.5386 64.5764" stroke="black" stroke-width="1.30096" stroke-miterlimit="10"></path>
  <path d="M268.275 166.516C268.275 166.516 252.289 177 256.606 184.594C260.923 192.187 281.738 184.594 281.738 184.594C281.738 184.594 256.606 190.177 256.606 196.262C256.606 202.348 281.738 200.75 281.738 200.75C281.738 200.75 246.732 202.142 249.82 219.196C277.906 223.477 292.967 216.252 297.24 199.144C301.512 182.036 287.932 161.58 279.602 158.142C295.633 131.088 336.886 42.3525 294.296 34.1395C251.705 25.9266 225.513 71.9909 225.513 71.9909" stroke="black" stroke-width="1.30096" stroke-linecap="round" stroke-linejoin="round"></path>
  <path d="M252.109 202.303C252.109 202.303 240.916 220.982 252.109 261.652" stroke="black" stroke-width="1.30096" stroke-linecap="round" stroke-linejoin="round"></path>
  <path d="M258.482 274.954C258.958 281.524 260.825 297.95 267.539 295.401C275.222 292.493 266.848 278.059 263.41 272.71C262.128 274.079 260.357 274.886 258.482 274.954Z" fill="#E19BE9" stroke="black" stroke-width="1.30096" stroke-linejoin="round"></path>
  <path d="M251.293 269.578C245.171 272.567 232.039 280.088 236.671 287.682C240.854 294.531 252.172 280.636 256.562 274.766C255.295 274.46 254.136 273.816 253.208 272.902C252.28 271.988 251.618 270.839 251.293 269.578Z" fill="#E19BE9" stroke="black" stroke-width="1.30096" stroke-linejoin="round"></path>
  <path d="M265.348 267.827C265.346 269.089 265.012 270.327 264.379 271.418C270.896 273.357 289.036 278.239 288.767 272.585C288.524 267.504 273.122 266.221 265.079 265.898C265.256 266.526 265.347 267.175 265.348 267.827Z" fill="#E19BE9" stroke="black" stroke-width="1.30096" stroke-linejoin="round"></path>
  <path d="M251.095 268.339C251.086 268.168 251.086 267.997 251.095 267.827C251.098 265.95 251.836 264.149 253.15 262.809C250.036 260.718 232.506 249.471 229.813 259.291C227.542 267.791 243.995 268.392 251.095 268.339Z" fill="#E19BE9" stroke="black" stroke-width="1.30096" stroke-linejoin="round"></path>
  <path d="M264.119 263.815C271.111 259.991 284.763 251.249 278.839 244.212C274.773 239.32 259.945 259.049 258.715 260.71C259.792 260.783 260.839 261.101 261.775 261.64C262.711 262.178 263.512 262.922 264.119 263.815Z" fill="#E19BE9" stroke="black" stroke-width="1.30096" stroke-linejoin="round"></path>
  <path d="M258.213 260.682L258.635 260.682C258.823 258.717 261.642 233.063 253.572 234.392C245.952 235.649 252.262 258.51 253.429 262.513C254.739 261.327 256.446 260.674 258.213 260.682Z" fill="#E19BE9" stroke="black" stroke-width="1.30096" stroke-linejoin="round"></path>
  </svg>