<svg class="svgIcon" width="170" height="20" viewBox="0 0 170 20" fill="none" xmlns="http://www.w3.org/2000/svg">
        <g clip-path="url(#clip0_102_798)">
          <path d="M21.9789 19.5196H28.1878L31.5165 0.425873H25.3076L24.08 7.26366H18.6974L19.925 0.425873H13.7162L10.3875 19.5196H16.5963L17.8475 12.3743H23.2301L21.9789 19.5196Z" fill="black"></path>
          <path d="M35.0341 0.402225L33.1455 11.0257C32.9802 11.8538 32.9094 12.6582 32.9094 13.4153C32.9094 19.0464 37.8199 19.8982 40.7708 19.8982C46.9561 19.8982 49.6238 17.8398 50.5917 12.2796L52.6692 0.378571H46.4603L44.6897 10.3632C44.1231 13.4863 43.7218 15.1189 41.4082 15.1189C39.8973 15.1189 39.1655 14.3144 39.1655 12.6582C39.1655 12.0194 39.2599 11.2386 39.4488 10.2685L41.243 0.378571H35.0341V0.402225Z" fill="black"></path>
          <path d="M85.4839 19.5196H91.6927L92.5662 14.5983H95.4936C100.9 14.5983 103.898 11.6645 103.898 6.31727C103.898 2.5553 101.301 0.402222 96.7448 0.402222H88.8126L85.4839 19.5196ZM95.1631 9.88996H93.3689L94.1952 5.39452H95.8713C97.2406 5.39452 97.9724 6.08067 97.9724 7.33466C97.9724 8.91989 96.9101 9.88996 95.1631 9.88996Z" fill="black"></path>
          <path d="M115.962 0C109.21 0 105.173 4.37714 105.173 11.7355C105.173 16.8461 108.384 19.9219 113.766 19.9219C120.518 19.9219 124.555 15.5447 124.555 8.18643C124.578 3.05216 121.368 0 115.962 0ZM114.144 14.9769C112.538 14.9769 111.594 13.8175 111.594 11.8774C111.594 11.1439 111.665 10.5051 111.807 9.77165C112.279 7.26367 113.081 4.96864 115.608 4.96864C117.213 4.96864 118.157 6.12799 118.157 8.06812C118.157 8.80159 118.086 9.44041 117.945 10.1739C117.473 12.6582 116.67 14.9769 114.144 14.9769Z" fill="black"></path>
          <path d="M146.156 19.5196H152.365L154.82 5.53647H159.495L160.392 0.425873H144.504L143.606 5.53647H148.564L146.156 19.5196Z" fill="black"></path>
          <path d="M135.863 7.47662C133.904 6.86145 133.101 6.60119 133.101 5.67844C133.101 5.06328 133.502 4.32981 134.683 4.32981C135.556 4.32981 136.288 4.82668 136.571 5.56014L142.048 4.06955C141.411 1.37229 139.097 0 135.108 0C127.6 0 127.01 5.03962 127.01 6.57753C127.01 9.70067 128.663 11.6171 132.251 12.6109C133.195 12.8711 134.281 13.1551 134.281 14.1961C134.281 15.0242 133.667 15.5447 132.605 15.5447C131.637 15.5447 130.598 14.9769 130.244 13.9832L124.838 15.4501C125.428 18.2893 128.096 19.8982 132.275 19.8982C135.462 19.8982 140.797 19.0464 140.797 13.2734C140.821 10.3868 139.192 8.49401 135.863 7.47662Z" fill="black"></path>
          <path d="M6.91709 19.5196L10.2694 0.425873H0V19.5196H6.91709Z" fill="black"></path>
          <path d="M163.059 0.425873L159.73 19.5196H170V0.425873H163.059Z" fill="black"></path>
          <path d="M60.082 13.8885H65.2993L66.1492 9.08551H60.9319L61.5221 5.53648H68.8169L69.714 0.402222H56.2103L52.8816 19.5197H59.0905L60.082 13.8885Z" fill="black"></path>
          <path d="M76.3477 13.8885H81.5886L82.4385 9.08551H77.2212L77.8114 5.53648H85.1062L86.0033 0.402222H72.4996L69.1709 19.5197H75.3798L76.3477 13.8885Z" fill="black"></path>
        </g>
        <defs>
          <clipPath id="clip0_102_798">
            <rect width="170" height="19.9219" fill="white"></rect>
          </clipPath>
        </defs>
      </svg>