<svg width="49" height="50" viewBox="0 0 49 50" fill="none" xmlns="http://www.w3.org/2000/svg">
  <path d="M21.3214 3.75019C15.5533 4.56162 14.8313 4.66319 12.5895 5.1085C10.8326 5.39555 9.13658 5.97681 7.57289 6.82781C6.22964 7.55835 5.06263 8.57412 4.1538 9.80377C3.21972 11.0148 2.56503 12.4175 2.23665 13.9112C1.85089 15.6491 1.76014 17.4395 1.96814 19.2075C2.18408 21.4815 2.26016 22.2071 3.07159 27.9752C3.88302 33.7433 3.98582 34.4739 4.43112 36.7156C4.71897 38.4724 5.30016 40.1682 6.15041 41.7322C6.89263 43.0673 7.90644 44.232 9.1265 45.1511C10.3466 46.0703 11.7458 46.7234 13.2338 47.0685C14.9712 47.4559 16.7619 47.5438 18.5289 47.3285C20.8041 47.1211 21.5285 47.0365 27.2966 46.225C33.0647 45.4136 33.7868 45.312 36.037 44.8655C37.7946 44.5842 39.4914 44.0056 41.0548 43.1547C42.3899 42.4125 43.5546 41.3987 44.4737 40.1786C45.3928 38.9586 46.046 37.5594 46.3911 36.0713C46.7776 34.3338 46.8655 32.5432 46.6511 30.7763C46.4351 28.5022 46.3579 27.7681 45.5464 22C44.735 16.2319 44.6334 15.5099 44.1881 13.2681C43.9067 11.5106 43.3282 9.81369 42.4773 8.2503C41.7351 6.91521 40.7212 5.75054 39.5012 4.83141C38.2811 3.91229 36.882 3.25912 35.3939 2.91405C33.656 2.5283 31.8656 2.43751 30.0976 2.64552C27.8151 2.86266 27.0895 2.93875 21.3214 3.75019ZM21.8604 7.58143C27.535 6.78314 28.2061 6.68872 30.4655 6.49216C31.8147 6.32119 33.1832 6.38364 34.5112 6.67674C35.4812 6.88513 36.3912 7.31103 37.1727 7.92232C37.9775 8.50301 38.6383 9.26064 39.1042 10.1369C39.7493 11.3335 40.184 12.632 40.3893 13.9758C40.8067 16.2041 40.9266 16.8716 41.7237 22.5378C42.5208 28.2039 42.6164 28.8835 42.8045 31.1441C42.9769 32.4925 42.9173 33.8603 42.6284 35.1886C42.4223 36.1594 41.9962 37.0699 41.3828 37.8501C40.8003 38.6533 40.0431 39.3137 39.1682 39.7816C37.9731 40.4299 36.6739 40.8648 35.3293 41.0667C33.101 41.4841 32.4335 41.604 26.7589 42.4023C21.0842 43.2006 20.4216 43.2938 18.161 43.4819C16.8129 43.6597 15.4441 43.6001 14.1166 43.3058C13.1441 43.0979 12.2312 42.6724 11.4465 42.0614C10.6466 41.4755 9.98681 40.719 9.51501 39.8468C8.87083 38.6499 8.43622 37.3515 8.22996 36.008C7.81253 33.7796 7.70112 33.1109 6.90283 27.4363C6.10454 21.7616 6.01134 21.099 5.81478 18.8396C5.64133 17.4913 5.70088 16.1233 5.99084 14.7952C6.20369 13.8267 6.62914 12.9176 7.23641 12.1336C7.82207 11.3299 8.5821 10.6691 9.4595 10.2009C10.6547 9.55187 11.953 9.11422 13.2972 8.90733C15.5255 8.4899 16.1942 8.37852 21.8604 7.58143Z" fill="black"></path>
  <path d="M25.3056 32.0722C23.9044 32.2693 22.4761 32.0465 21.2015 31.432C19.9269 30.8174 18.8632 29.8386 18.1449 28.6195C17.4265 27.4003 17.0858 25.9955 17.1658 24.5828C17.2459 23.17 17.743 21.8127 18.5945 20.6824C19.4459 19.5522 20.6134 18.6999 21.9492 18.2332C23.2851 17.7665 24.7294 17.7064 26.0994 18.0605C27.4694 18.4146 28.7036 19.167 29.646 20.2226C30.5884 21.2782 31.1966 22.5895 31.3938 23.9907C31.5258 24.9213 31.473 25.8688 31.2383 26.7789C31.0037 27.689 30.5918 28.5438 30.0262 29.2945C29.4607 30.0452 28.7526 30.677 27.9426 31.1536C27.1326 31.6303 26.2365 31.9424 25.3056 32.0722ZM22.7757 14.0884C20.618 14.3919 18.5988 15.3286 16.9736 16.7798C15.3483 18.2311 14.19 20.1318 13.6451 22.2415C13.1003 24.3512 13.1934 26.5751 13.9126 28.6319C14.6319 30.6886 15.945 32.4859 17.6858 33.7963C19.4266 35.1067 21.517 35.8714 23.6925 35.9935C25.868 36.1157 28.0308 35.5899 29.9075 34.4827C31.7841 33.3755 33.2901 31.7366 34.2352 29.7732C35.1802 27.8099 35.5217 25.6104 35.2165 23.453C35.0161 22.0205 34.5351 20.6416 33.8011 19.3953C33.0671 18.149 32.0944 17.0597 30.9388 16.1898C29.7832 15.32 28.4673 14.6866 27.0665 14.326C25.6658 13.9654 24.2077 13.8847 22.7757 14.0884Z" fill="black"></path>
  <path d="M36.6039 11.7013C36.6748 12.2054 36.5947 12.7191 36.3736 13.1776C36.1525 13.6361 35.8005 14.0188 35.3619 14.2772C34.9234 14.5356 34.418 14.6581 33.9099 14.6293C33.4017 14.6005 32.9135 14.4217 32.5069 14.1154C32.1004 13.8092 31.7937 13.3892 31.6259 12.9087C31.458 12.4281 31.4364 11.9086 31.5637 11.4158C31.6911 10.923 31.9618 10.479 32.3415 10.14C32.7212 9.80104 33.1929 9.58227 33.6969 9.51136C34.3728 9.41628 35.0588 9.5936 35.604 10.0043C36.1491 10.415 36.5088 11.0254 36.6039 11.7013Z" fill="black"></path>
</svg>