<svg class="svgIcon" width="170" height="31" viewBox="0 0 170 31" fill="none" xmlns="http://www.w3.org/2000/svg">
        <g clip-path="url(#clip0_102_794)">
        <path d="M19.9061 6.86594C19.9061 4.40777 18.2263 2.88201 16.0425 2.88201C15.5385 2.88201 14.1947 2.88201 13.7747 2.96677L12.2628 12.4604C12.5148 12.4604 13.0188 12.4604 13.2708 12.4604C16.8824 12.4604 19.9061 10.087 19.9061 6.86594ZM46.8676 1.01719L43.8439 19.6654C43.6759 20.4283 43.6759 20.7673 45.1038 20.7673L44.7678 23.1407H42.248C43.5919 23.8189 44.9358 24.7513 44.9358 26.1075C44.9358 28.6504 42.5 30.6 36.1166 30.6C24.2737 30.6 16.4625 24.497 13.8587 15.3424H11.7589L10.835 21.1064C10.667 22.2083 10.667 22.5474 12.5988 22.7169L13.9427 22.8017L13.4387 25.5989C11.5069 25.5141 9.40711 25.3446 7.22332 25.4294C5.2915 25.4294 3.27569 25.5141 1.34387 25.5989L1.76383 22.8017C2.26779 22.8017 2.60375 22.8017 2.93972 22.7169C3.27569 22.7169 3.52767 22.6321 3.86364 22.5474C4.36759 22.3779 4.87154 22.0388 4.95553 21.3607L7.81127 3.72965C6.97134 3.89918 6.21542 4.06871 5.37549 4.40777C4.70356 4.66206 4.03162 5.25542 4.03162 5.67924C4.11561 5.93353 4.11561 6.10306 4.1996 6.27259C4.36759 6.44212 4.45158 6.61165 4.45158 6.78118C4.45158 6.95071 4.36759 7.03547 4.2836 7.12023C3.86364 7.71359 2.93972 8.05265 2.0998 8.05265C0.923913 8.05265 0 7.12024 0 6.0183C0 2.71248 4.03162 1.44101 6.63538 0.932423C9.5751 0.423836 12.5148 0.0847778 15.5385 0.0847778C21.502 0.0847778 25.8696 1.9496 25.8696 6.78118C25.8696 10.6803 22.9298 13.2233 19.7381 14.3252C22.1739 21.954 28.0534 27.6333 35.6127 27.6333C38.4684 27.6333 39.4763 26.3618 39.4763 25.1751C39.4763 24.1579 38.7204 23.3103 37.7125 23.2255H37.6285H36.4526L36.8725 20.8521C37.7125 20.8521 38.6364 20.7673 38.8044 19.9197L40.9881 6.44212C40.9881 6.18783 40.9042 6.10306 40.6522 6.10306H38.6364L39.0563 3.98395L46.6156 0.932423L46.8676 1.01719ZM155.637 20.7673L155.217 23.1407H147.154L147.574 20.7673C148.834 20.7673 149.002 20.6826 149.17 19.5806L150.094 13.7319C150.262 12.7147 149.674 12.3756 149.086 12.3756C147.91 12.3756 146.65 13.6471 146.482 15.0033L145.726 19.7502C145.642 20.4283 145.726 20.7673 147.154 20.7673L146.818 23.1407H138.587L139.007 20.7673C140.519 20.7673 140.771 20.513 140.855 19.6654L141.863 13.6471C141.947 13.2233 141.863 13.1385 141.527 13.1385H139.763L140.099 11.0194L147.406 7.79835L147.658 7.96788L147.322 9.8327C148.666 8.646 150.178 7.79835 151.858 7.79835C153.958 7.79835 155.385 9.8327 155.385 11.9518C155.385 12.4604 155.301 12.8842 155.217 13.5623L154.21 19.4959C153.79 20.513 154.042 20.7673 155.637 20.7673ZM125.904 8.56123L124.476 11.528C123.972 11.2737 123.384 11.1889 122.796 11.1889H121.117L120.025 18.1396C119.857 19.4111 120.025 19.5806 120.697 19.5806C121.369 19.5806 122.125 19.2416 123.384 18.0549L124.476 20.2587C122.964 21.8693 121.033 23.5646 118.597 23.5646C115.993 23.5646 114.901 22.0388 114.901 19.6654C114.901 19.1568 114.985 18.4787 115.069 17.9701L116.161 11.1042H114.229L114.649 8.47647H116.497L116.917 5.67924L121.957 3.64489L122.293 3.98395L121.621 8.3917L125.904 8.56123ZM115.909 1.01719C115.237 3.22107 114.733 5.50971 114.397 7.88312H111.458C111.709 6.95071 111.793 6.27259 111.793 5.764C111.793 4.49253 110.366 3.72965 108.266 3.72965C106.082 3.72965 104.654 4.83159 104.57 6.27259C104.57 7.62882 105.074 8.13741 106.754 9.32411L109.694 11.3585C112.381 13.308 114.061 15.0881 113.977 18.2244C113.893 23.395 109.526 26.0227 103.982 26.0227C102.638 26.0227 101.63 25.8532 100.707 25.5989C99.9506 25.4294 99.1947 25.1751 98.4387 25.1751C97.8508 25.1751 97.2628 25.3446 96.7589 25.5989L96.3389 25.3446C96.003 22.8017 95.499 20.3435 94.9951 17.8853L98.0188 17.1225C98.7747 20.9369 100.539 22.6321 104.318 22.6321C106.838 22.6321 108.098 21.4454 108.182 19.4111C108.182 17.5463 107.258 16.7834 105.494 15.5967C104.738 15.0881 103.898 14.5795 103.142 14.0709C102.386 13.5623 101.714 13.0538 101.126 12.4604C99.7826 11.1042 99.1107 9.15458 99.1947 7.28976C99.2787 3.22107 102.89 0.339072 107.762 0.339072C109.778 0.339072 111.374 0.847659 113.221 0.932423C113.809 0.932423 114.901 0.847659 115.489 0.67813L115.909 1.01719ZM63.498 3.56012C63.498 5.50971 61.3982 7.205 59.2984 7.205C58.2065 7.205 56.9466 6.69641 56.9466 5.17065C56.9466 2.88201 59.2984 1.27148 61.2302 1.27148C62.4901 1.27148 63.498 2.11913 63.498 3.56012ZM63.0781 8.05265L61.2302 19.4111C61.0623 20.6826 60.9783 20.8521 62.8261 20.8521L62.4901 23.2255H53.9229L54.2589 20.8521C55.6868 20.8521 56.0227 20.513 56.1907 19.7502L57.1146 13.5623C57.1986 13.2233 57.1986 13.1385 56.7787 13.1385H54.8468L55.1828 11.0194L62.7421 7.79835C62.8261 7.79835 63.0781 8.05265 63.0781 8.05265ZM55.5188 0.932423L52.5791 19.2416C52.3271 20.5978 52.4951 20.7673 53.8389 20.7673L53.503 23.1407H45.2717L45.6077 20.7673C47.0356 20.7673 47.4555 20.513 47.5395 19.4959L49.6393 6.52688C49.7233 6.10306 49.6393 6.0183 49.3034 6.0183H47.3715L47.7075 3.89918L55.2668 0.762894L55.5188 0.932423ZM165.212 12.4604C165.128 11.1042 164.625 10.6803 163.869 10.6803C162.945 10.6803 161.685 11.7823 161.265 14.2405C161.181 14.3252 165.212 12.4604 165.212 12.4604ZM170 13.2233L160.761 17.5463C160.929 19.1568 161.853 20.174 163.281 20.174C164.792 20.174 165.296 19.3263 165.296 18.9025C165.296 18.733 165.212 18.5634 165.128 18.3939C165.044 18.2244 164.96 18.1396 164.96 17.8853C164.96 17.7158 164.96 17.631 165.044 17.5463C165.548 16.9529 166.304 16.6139 167.144 16.6986C168.236 16.6986 169.16 17.5463 169.16 18.733C169.16 21.4454 166.556 23.5646 162.441 23.5646C158.409 23.5646 155.553 21.1064 155.553 16.4443C155.553 12.2909 159.249 7.79835 163.869 7.79835C167.816 7.79835 169.496 9.74794 170 13.2233ZM133.967 13.2233C133.967 11.528 133.463 10.7651 132.456 10.7651C131.028 10.7651 129.432 13.8166 129.432 18.2244C129.432 19.9197 130.02 20.6826 130.944 20.6826C132.54 20.5978 134.051 17.0377 133.967 13.2233ZM139.259 14.41C139.259 18.9873 135.983 23.6493 130.776 23.6493C126.828 23.6493 124.308 21.2759 124.308 16.6986C124.308 11.9518 127.836 7.79835 132.708 7.79835C136.487 7.71359 139.259 10.1718 139.259 14.41ZM88.1917 25.5141C88.1917 25.1751 87.8557 24.9208 87.0998 24.9208C86.2599 24.9208 85.42 25.0056 84.496 25.0056C83.1522 25.0903 81.8083 24.7513 80.6324 24.2427C80.0445 24.6665 79.7085 25.2598 79.7085 26.0227C79.7085 27.0399 80.9684 27.8028 82.3962 27.8028C86.2599 27.8028 88.1917 26.4466 88.1917 25.5141ZM89.0316 12.1213C89.0316 11.2737 88.6957 10.5108 88.0237 10.5108C86.5119 10.5108 85.8399 13.3928 85.8399 15.0881C85.8399 16.2748 86.0919 16.7834 86.9318 16.7834C88.2757 16.8682 89.0316 13.7319 89.0316 12.1213ZM98.5227 9.57841C98.5227 10.5108 97.6828 11.7823 96.8429 11.7823C96.5909 11.7823 96.5069 11.6128 96.3389 11.3585C96.2549 11.1889 96.087 11.1042 96.003 11.1042C95.919 11.0194 95.751 11.0194 95.667 11.0194C94.7431 11.0194 94.1551 12.0366 94.1551 12.8842V13.4776C94.1551 14.41 93.9032 15.4272 93.3992 16.19C92.0553 18.3092 89.7036 19.5806 87.2678 19.5806C86.3439 19.5806 85.42 19.4959 84.496 19.1568C84.3281 19.3263 84.2441 19.5806 84.2441 19.7502C84.2441 20.3435 84.748 20.513 85.504 20.513C87.0998 20.513 88.4437 20.2587 89.9555 20.2587C92.4753 20.2587 94.2391 21.5302 94.2391 23.8189C94.2391 27.9723 88.0237 30.4305 82.2283 30.4305C78.7846 30.4305 75.4249 29.4133 75.4249 26.4466C75.4249 25.0056 76.2648 23.8189 78.1127 22.9712H71.2253L71.6453 20.5978C72.9891 20.5978 73.1571 20.4283 73.2411 19.5806L74.165 13.4776C74.249 12.7147 73.7451 12.2061 73.1571 12.2061C71.9812 12.2061 70.7214 13.5623 70.5534 14.6643L69.7974 19.7502C69.7134 20.3435 69.7974 20.6826 71.1413 20.6826L70.8053 23.056H62.9941L63.414 20.6826C64.7579 20.6826 64.8419 20.513 64.9259 19.7502L65.9338 13.4776C66.0178 13.0538 65.9338 13.0538 65.5978 13.0538H63.666L64.086 10.9346L71.6453 7.79835L71.8132 7.96788L71.3933 9.8327C72.9051 8.47647 74.417 7.79835 75.8449 7.79835C78.2806 7.79835 79.4565 10.087 79.4565 12.1213C79.4565 12.3756 79.3725 12.8842 79.3725 13.1385L78.3646 19.6654C78.1966 20.4283 78.7846 20.6826 79.5405 20.7673C79.8765 19.3263 80.9684 18.5634 82.2283 18.0549C81.3044 17.0377 80.7164 15.6815 80.8004 14.3252C80.8004 10.1718 84.4961 7.71359 88.1917 7.71359C89.8715 7.71359 92.0553 8.30694 93.1472 10.087C93.9872 8.56123 95.247 7.71359 96.5069 7.71359C97.5988 7.62882 98.5227 8.3917 98.5227 9.57841ZM33.2609 13.2233C33.2609 11.528 32.6729 10.7651 31.749 10.7651C30.3211 10.7651 28.7253 13.8166 28.7253 18.2244C28.7253 19.9197 29.3132 20.6826 30.2372 20.6826C31.833 20.5978 33.2609 17.0377 33.2609 13.2233ZM38.5524 14.41C38.5524 18.9873 35.2767 23.6493 30.0692 23.6493C26.1215 23.6493 23.6018 21.2759 23.6018 16.6986C23.6018 11.9518 27.1294 7.79835 32.001 7.79835C35.7806 7.71359 38.5524 10.1718 38.5524 14.41Z" fill="black"></path>
        </g>
        <defs>
        <clipPath id="clip0_102_794">
        <rect width="170" height="30.6" fill="white"></rect>
        </clipPath>
        </defs>
</svg>