<svg class="smiley" width="148" height="148" viewBox="0 0 148 148" fill="none" xmlns="http://www.w3.org/2000/svg">
  <path d="M73.9077 147.815C114.726 147.815 147.815 114.726 147.815 73.9076C147.815 33.0895 114.726 0 73.9077 0C33.0897 0 0 33.0895 0 73.9076C0 114.726 33.0897 147.815 73.9077 147.815Z" fill="#FFC91D"></path>
  <path d="M44.0462 59.9232C42.7542 61.1788 42.2266 63.4352 42.9818 66.7653C43.6642 69.7678 46.4938 70.9688 49.1778 71.3146C52.2168 71.7604 55.2921 70.9779 55.9835 67.5569C56.6022 64.5362 55.4285 62.2888 52.9264 60.642C49.4781 58.4037 45.9478 58.0762 44.0462 59.9232Z" fill="black"></path>
  <path d="M64.0446 46.4662C64.172 49.4232 65.4913 52.4712 67.5749 53.6176C72.4608 56.3472 78.8207 52.7078 78.2657 47.0212C77.8199 42.4719 72.5701 38.8962 68.0936 39.7423C65.1001 40.2791 63.9082 43.3272 64.0446 46.4662Z" fill="black"></path>
  <path d="M45.8291 93.369C50.9152 101.357 62.2702 106.571 71.0321 109.346C83.8883 113.413 100.211 111.912 106.698 98.628C111.885 88.019 109.655 74.7078 105.133 64.2809C103.857 61.3077 102.29 58.4674 100.457 55.801" stroke="black" stroke-width="2.31246" stroke-miterlimit="10" stroke-linecap="round"></path>
  </svg>