<svg width="52" height="44" viewBox="0 0 52 44" fill="none" xmlns="http://www.w3.org/2000/svg">
  <path d="M50.4622 11.2384C48.6534 11.7587 46.7757 12.008 44.8913 11.978C47.0005 11.0808 48.7071 9.45335 49.6933 7.39875C47.7096 8.22872 45.5981 8.7208 43.4477 8.85428C42.2316 7.18411 40.4958 5.95599 38.5083 5.35949C36.5207 4.763 34.3919 4.83129 32.4504 5.55383C30.5089 6.27638 28.8628 7.61299 27.7661 9.35735C26.6694 11.1017 26.1831 13.1568 26.3823 15.2054C22.6864 14.5279 19.1733 13.0888 16.0705 10.9814C12.9677 8.87396 10.3442 6.1451 8.36986 2.9714C6.90525 4.85443 6.21968 7.22122 6.45239 9.59111C6.68509 11.961 7.81862 14.1563 9.62277 15.7312C8.16843 15.4917 6.79279 14.9088 5.61207 14.0317C5.29841 16.179 5.7465 18.3693 6.87982 20.2287C8.01315 22.0881 9.76143 23.5013 11.8261 24.2269C10.401 24.4175 8.94986 24.2781 7.58657 23.8198C7.93819 25.7433 8.88846 27.5107 10.3039 28.8737C11.7194 30.2367 13.5289 31.1267 15.4782 31.4189C11.1438 33.92 5.98305 34.6162 1.12378 33.3552C5.04347 36.6477 9.8349 38.7519 14.924 39.4158C18.5262 39.9178 22.1921 39.6846 25.6968 38.7308C29.2014 37.7769 32.4708 36.1224 35.3042 33.8689C38.1377 31.6153 40.4753 28.8103 42.1736 25.626C43.8719 22.4418 44.8951 18.9454 45.1803 15.3516C47.1701 14.297 48.9577 12.905 50.4622 11.2384Z" fill="black"></path>
</svg>